#N canvas 204 126 1203 683 10;
#X obj 341 597 dac~;
#X obj 23 17 loadbang;
#X obj 114 160 soundfiler;
#N canvas 0 22 450 278 (subpatch) 0;
#X array \$0-sound-L 99158 float 2;
#X coords 0 1 99158 -1 200 140 1 0 0;
#X restore 594 34 graph;
#X obj 53 92 i \$0;
#X floatatom 50 186 15 0 0 0 - - -;
#X obj 283 458 *~;
#X obj 293 418 phasor~;
#X obj 136 281 /;
#X obj 125 211 t b f;
#X floatatom 135 305 5 0 0 0 - - -;
#X obj 55 60 bng 15 250 50 0 empty empty empty 17 7 0 10 -262144 -1
-1;
#N canvas 0 22 450 278 (subpatch) 0;
#X array \$0-sound-R 99158 float 2;
#X coords 0 1 99158 -1 200 140 1 0 0;
#X restore 385 31 graph;
#X obj 267 509 tabread4~ \$0-sound-L;
#X obj 404 508 tabread4~ \$0-sound-R;
#X obj 261 557 *~ 0.5;
#X obj 378 561 *~ 0.5;
#X obj 121 251 f;
#X obj 162 187 unpack 0;
#X obj 382 380 *;
#X obj 399 348 t b f;
#X obj 400 313 nbx 5 14 -1e+37 1e+37 0 1 empty empty pitch 0 -8 0 10
-262144 -1 -1 -0.27 256;
#X obj 10 214 s sound_length;
#X obj 353 416 r sound_length;
#X obj 71 334 s master_speed;
#X obj 299 316 r master_speed;
#X obj 167 514 nbx 5 14 0 1 0 1 empty empty volume 0 -8 0 10 -262144
-1 -1 0.53 256;
#X obj 779 584 dac~;
#X obj 721 445 *~;
#X obj 731 405 phasor~;
#X obj 705 496 tabread4~ \$0-sound-L;
#X obj 842 495 tabread4~ \$0-sound-R;
#X obj 699 544 *~ 0.5;
#X obj 816 548 *~ 0.5;
#X obj 820 367 *;
#X obj 837 335 t b f;
#X obj 838 300 nbx 5 14 -1e+37 1e+37 0 1 empty empty pitch 0 -8 0 10
-262144 -1 -1 0.13 256;
#X obj 791 403 r sound_length;
#X obj 737 303 r master_speed;
#X obj 605 501 nbx 5 14 0 1 0 1 empty empty volume 0 -8 0 10 -262144
-1 -1 0.93 256;
#X msg 32 138 read -resize Sounds/bell.wav \$1-sound-L \$1-sound-R
;
#X connect 1 0 11 0;
#X connect 2 0 5 0;
#X connect 2 1 18 0;
#X connect 4 0 40 0;
#X connect 5 0 9 0;
#X connect 5 0 22 0;
#X connect 6 0 13 0;
#X connect 6 0 14 0;
#X connect 7 0 6 0;
#X connect 8 0 10 0;
#X connect 9 0 17 0;
#X connect 9 1 8 1;
#X connect 10 0 24 0;
#X connect 11 0 4 0;
#X connect 13 0 15 0;
#X connect 14 0 16 0;
#X connect 15 0 0 0;
#X connect 16 0 0 1;
#X connect 17 0 8 0;
#X connect 18 0 17 1;
#X connect 19 0 7 0;
#X connect 20 0 19 0;
#X connect 20 1 19 1;
#X connect 21 0 20 0;
#X connect 23 0 6 1;
#X connect 25 0 19 0;
#X connect 26 0 15 1;
#X connect 26 0 16 1;
#X connect 28 0 30 0;
#X connect 28 0 31 0;
#X connect 29 0 28 0;
#X connect 30 0 32 0;
#X connect 31 0 33 0;
#X connect 32 0 27 0;
#X connect 33 0 27 1;
#X connect 34 0 29 0;
#X connect 35 0 34 0;
#X connect 35 1 34 1;
#X connect 36 0 35 0;
#X connect 37 0 28 1;
#X connect 38 0 34 0;
#X connect 39 0 32 1;
#X connect 39 0 33 1;
#X connect 40 0 2 0;
