#N canvas 105 85 1191 717 10;
#X obj 456 323 bng 15 250 50 0 empty empty empty 17 7 0 10 -262144
-1 -1;
#X obj 109 299 soundfiler;
#N canvas 0 22 450 278 (subpatch) 0;
#X array sound1 6198 float 2;
#X coords 0 1 6198 -1 200 140 1;
#X restore 700 27 graph;
#X obj 196 139 receive filename;
#X msg 110 262 read -resize sounds/\$1.wav sound1;
#X obj 281 190 print filename;
#X obj 278 368 i;
#X msg 361 367 0;
#X msg 268 519 1 \$1;
#X obj 281 552 line~;
#X obj 246 589 *~;
#X obj 272 652 tabread4~ sound1;
#X obj 263 693 dac~;
#X msg 197 204 symbol \$1;
#X obj 196 232 symbol;
#X obj 77 360 print size;
#X floatatom 72 416 5 0 0 0 - - -;
#X msg 112 194 symbol drop;
#X obj 417 288 bng 15 250 50 0 empty empty empty 17 7 0 10 -262144
-1 -1;
#X floatatom 213 359 5 0 0 0 - - -;
#X obj 214 332 / 44.1;
#X obj 458 275 receive triggerOff;
#X obj 271 470 *;
#X obj 525 339 r pitch;
#X obj 324 329 t b b b;
#X obj 468 388 f;
#X obj 338 226 receive triggerOn;
#X floatatom 590 332 5 0 0 0 - - -;
#X obj 468 496 /;
#X msg 453 470 1;
#X obj 471 425 t b f;
#X floatatom 468 517 5 0 0 0 - - -;
#X connect 0 0 7 0;
#X connect 1 0 10 1;
#X connect 1 0 15 0;
#X connect 1 0 16 0;
#X connect 1 0 20 0;
#X connect 3 0 5 0;
#X connect 3 0 13 0;
#X connect 4 0 1 0;
#X connect 6 0 22 0;
#X connect 7 0 9 0;
#X connect 8 0 9 0;
#X connect 9 0 10 0;
#X connect 10 0 11 0;
#X connect 11 0 12 0;
#X connect 11 0 12 1;
#X connect 13 0 14 0;
#X connect 14 0 4 0;
#X connect 17 0 14 0;
#X connect 18 0 24 0;
#X connect 20 0 6 1;
#X connect 20 0 19 0;
#X connect 21 0 0 0;
#X connect 22 0 8 0;
#X connect 23 0 25 1;
#X connect 24 0 6 0;
#X connect 24 1 7 0;
#X connect 24 2 25 0;
#X connect 25 0 30 0;
#X connect 26 0 24 0;
#X connect 27 0 25 1;
#X connect 28 0 31 0;
#X connect 29 0 28 0;
#X connect 30 0 29 0;
#X connect 30 1 28 1;
#X connect 31 0 22 1;
