#N canvas 8 91 1278 506 10;
#X obj 239 431 dac~;
#X obj 239 366 *~;
#X obj 417 239 line~;
#X obj 391 94 bng 15 250 50 0 empty empty empty 17 7 0 10 -262144 -1
-1;
#X text 442 32 signal from Unity;
#X text 535 165 the simplest boop;
#X msg 390 137 1 5;
#X obj 380 54 receive triggerOn;
#X obj 508 52 receive triggerOff;
#X obj 506 100 bng 15 250 50 0 empty empty empty 17 7 0 10 -262144
-1 -1;
#X obj 239 387 *~ 0.4;
#X obj 225 5 loadbang;
#X obj 112 124 mtof;
#X obj 147 327 osc~;
#X obj 112 169 sig~;
#X obj 206 195 *~ 1.5;
#X obj 206 216 osc~;
#X floatatom 238 160 5 0 0 0 - - -;
#X obj 142 296 +~;
#X obj 197 249 *~ 20;
#X floatatom 309 174 5 0 0 0 - - -;
#X obj 114 80 random 20;
#X obj 114 101 + 40;
#X obj 231 86 random 100;
#X obj 231 107 / 10;
#X obj 234 54 bng 15 250 50 0 empty empty empty 17 7 0 10 -262144 -1
-1;
#X obj 307 118 random 400;
#X obj 307 139 + 100;
#X obj 315 73 bng 15 250 50 0 empty empty empty 17 7 0 10 -262144 -1
-1;
#X obj 114 50 bng 15 250 50 0 empty empty empty 17 7 0 10 -262144 -1
-1;
#X msg 491 140 0 2000;
#X connect 1 0 10 0;
#X connect 2 0 1 1;
#X connect 3 0 6 0;
#X connect 6 0 2 0;
#X connect 7 0 3 0;
#X connect 8 0 9 0;
#X connect 9 0 30 0;
#X connect 10 0 0 0;
#X connect 10 0 0 1;
#X connect 11 0 29 0;
#X connect 11 0 25 0;
#X connect 11 0 28 0;
#X connect 12 0 14 0;
#X connect 13 0 1 0;
#X connect 14 0 18 0;
#X connect 14 0 15 0;
#X connect 15 0 16 0;
#X connect 16 0 19 0;
#X connect 17 0 15 1;
#X connect 18 0 13 0;
#X connect 19 0 18 1;
#X connect 20 0 19 1;
#X connect 21 0 22 0;
#X connect 22 0 12 0;
#X connect 23 0 24 0;
#X connect 24 0 17 0;
#X connect 25 0 23 0;
#X connect 26 0 27 0;
#X connect 27 0 20 0;
#X connect 28 0 26 0;
#X connect 29 0 21 0;
#X connect 30 0 2 0;
