#N canvas 370 171 900 584 16;
#X obj 221 559 dac~;
#X obj 221 494 *~;
#X obj 417 239 line~;
#X obj 391 94 bng 15 250 50 0 empty empty empty 17 7 0 10 -262144 -1
-1;
#X text 442 32 signal from Unity;
#X text 535 165 the simplest boop;
#X msg 390 137 1 5;
#X obj 380 54 receive triggerOn;
#X obj 580 57 receive triggerOff;
#X obj 557 96 bng 15 250 50 0 empty empty empty 17 7 0 10 -262144 -1
-1;
#X obj 221 515 *~ 0.4;
#X obj 110 12 loadbang;
#X obj 111 178 mtof;
#X obj 155 422 osc~;
#X obj 111 223 sig~;
#X obj 168 263 *~ 1.5;
#X obj 194 300 osc~;
#X floatatom 235 202 5 0 0 0 - - -;
#X obj 150 391 +~;
#X obj 195 342 *~ 20;
#X floatatom 308 228 5 0 0 0 - - -;
#X msg 542 136 0 200;
#X msg 235 145 2.2;
#X msg 302 141 100;
#X obj 103 58 bng 15 250 50 0 empty empty empty 17 7 0 10 -262144 -1
-1;
#X obj 70 87 random 20;
#X obj 70 116 + 30;
#X connect 1 0 10 0;
#X connect 2 0 1 1;
#X connect 3 0 6 0;
#X connect 6 0 2 0;
#X connect 7 0 3 0;
#X connect 8 0 9 0;
#X connect 9 0 21 0;
#X connect 10 0 0 0;
#X connect 10 0 0 1;
#X connect 11 0 22 0;
#X connect 11 0 23 0;
#X connect 11 0 24 0;
#X connect 12 0 14 0;
#X connect 13 0 1 0;
#X connect 14 0 18 0;
#X connect 14 0 15 0;
#X connect 15 0 16 0;
#X connect 16 0 19 0;
#X connect 17 0 15 1;
#X connect 18 0 13 0;
#X connect 19 0 18 1;
#X connect 20 0 19 1;
#X connect 21 0 2 0;
#X connect 22 0 17 0;
#X connect 23 0 20 0;
#X connect 24 0 25 0;
#X connect 25 0 26 0;
#X connect 26 0 12 0;
