#N canvas 204 23 849 623 10;
#X obj 341 597 dac~;
#X obj 23 17 loadbang;
#X obj 114 160 soundfiler;
#N canvas 0 22 450 278 (subpatch) 0;
#X array \$0-sound-L 3.87298e+06 float 2;
#X coords 0 1 3.87298e+06 -1 200 140 1 0 0;
#X restore 594 34 graph;
#X obj 53 92 i \$0;
#X floatatom 50 186 15 0 0 0 - - -;
#X obj 283 458 *~;
#X obj 293 418 phasor~;
#X obj 136 281 /;
#X obj 125 211 t b f;
#X floatatom 135 305 5 0 0 0 - - -;
#X obj 55 60 bng 15 250 50 0 empty empty empty 17 7 0 10 -262144 -1
-1;
#N canvas 0 22 450 278 (subpatch) 0;
#X array \$0-sound-R 3.87298e+06 float 2;
#X coords 0 1 3.87298e+06 -1 200 140 1 0 0;
#X restore 385 31 graph;
#X obj 267 509 tabread4~ \$0-sound-L;
#X obj 404 508 tabread4~ \$0-sound-R;
#X msg 32 138 read -resize Sounds/forest.wav \$1-sound-L \$1-sound-R
;
#X obj 261 557 *~ 0.5;
#X obj 378 561 *~ 0.5;
#X obj 121 251 f;
#X obj 162 187 unpack 0;
#X obj 382 380 *;
#X obj 399 348 t b f;
#X obj 400 313 nbx 5 14 -1e+37 1e+37 0 1 empty empty pitch 0 -8 0 10
-262144 -1 -1 1 256;
#X obj 10 214 s sound_length;
#X obj 353 416 r sound_length;
#X obj 71 334 s master_speed;
#X obj 299 316 r master_speed;
#X obj 167 514 nbx 5 14 0 1 0 1 empty empty volume 0 -8 0 10 -262144
-1 -1 0.61 256;
#X connect 1 0 11 0;
#X connect 2 0 5 0;
#X connect 2 1 19 0;
#X connect 4 0 15 0;
#X connect 5 0 9 0;
#X connect 5 0 23 0;
#X connect 6 0 13 0;
#X connect 6 0 14 0;
#X connect 7 0 6 0;
#X connect 8 0 10 0;
#X connect 9 0 18 0;
#X connect 9 1 8 1;
#X connect 10 0 25 0;
#X connect 11 0 4 0;
#X connect 13 0 16 0;
#X connect 14 0 17 0;
#X connect 15 0 2 0;
#X connect 16 0 0 0;
#X connect 17 0 0 1;
#X connect 18 0 8 0;
#X connect 19 0 18 1;
#X connect 20 0 7 0;
#X connect 21 0 20 0;
#X connect 21 1 20 1;
#X connect 22 0 21 0;
#X connect 24 0 6 1;
#X connect 26 0 20 0;
#X connect 27 0 16 1;
#X connect 27 0 17 1;
