#N canvas 482 133 699 617 10;
#X obj 272 528 dac~;
#X obj 30 193 +~ 110;
#X obj 186 233 *~ 0.5;
#X obj 30 172 *~ 1550;
#X msg 105 110 \$1 5;
#X obj 91 5 receive proximity;
#X text 490 46 Here \, sending a float from;
#X text 490 56 Unity to the proximity;
#X text 490 68 receive object triggers a;
#X text 490 89 applies to both the;
#X text 489 100 oscillator's frequency \,;
#X text 489 111 and its amplitude.;
#X obj 105 129 line~;
#X floatatom 97 46 5 0 0 0 - - -;
#X text 490 79 short line~ ramp that;
#X obj 236 388 osc~;
#X obj 301 227 *~ 1.5;
#X obj 301 248 osc~;
#X floatatom 333 192 5 0 0 0 - - -;
#X obj 231 357 +~;
#X obj 292 281 *~ 20;
#X floatatom 353 248 5 0 0 0 - - -;
#X obj 335 113 random 1000;
#X obj 335 134 / 500;
#X obj 334 75 loadbang;
#X obj 396 200 random 400;
#X obj 396 221 + 100;
#X obj 397 167 loadbang;
#X obj 278 434 *~;
#X connect 1 0 19 0;
#X connect 1 0 16 0;
#X connect 2 0 28 1;
#X connect 3 0 1 0;
#X connect 4 0 12 0;
#X connect 5 0 13 0;
#X connect 12 0 2 0;
#X connect 12 0 3 0;
#X connect 13 0 4 0;
#X connect 15 0 28 0;
#X connect 16 0 17 0;
#X connect 17 0 20 0;
#X connect 18 0 16 1;
#X connect 19 0 15 0;
#X connect 20 0 19 1;
#X connect 21 0 20 1;
#X connect 22 0 23 0;
#X connect 23 0 18 0;
#X connect 24 0 22 0;
#X connect 25 0 26 0;
#X connect 26 0 21 0;
#X connect 27 0 25 0;
#X connect 28 0 0 0;
#X connect 28 0 0 1;
