#N canvas 365 101 682 497 10;
#X obj 120 461 dac~;
#X obj 97 407 *~;
#X obj 137 405 *~;
#X obj 188 292 adc~;
#X obj 336 392 *~;
#X obj 357 445 dac~;
#X obj 363 306 tgl 15 0 empty empty empty 17 7 0 10 -262144 -1 -1 0
1;
#X obj 85 9 loadbang;
#X obj 85 78 + 40;
#X obj 85 99 mtof;
#X text 229 288 Unity Spatializing system;
#X text 389 304 switch on for testing in Pd;
#X msg 355 339 \$1 10;
#X obj 355 360 line~;
#X obj 93 285 osc~;
#X obj 80 123 sig~;
#X obj 182 183 *~ 1.5;
#X obj 182 204 osc~;
#X floatatom 214 148 5 0 0 0 - - -;
#X obj 88 254 +~;
#X obj 173 237 *~ 20;
#X floatatom 234 204 5 0 0 0 - - -;
#X obj 216 69 random 1000;
#X obj 216 90 / 500;
#X obj 215 31 loadbang;
#X obj 277 156 random 400;
#X obj 277 177 + 100;
#X obj 278 123 loadbang;
#X obj 85 57 random 50;
#X obj 94 330 *~ 0.25;
#X connect 1 0 0 0;
#X connect 2 0 0 1;
#X connect 3 0 1 1;
#X connect 3 1 2 1;
#X connect 4 0 5 0;
#X connect 4 0 5 1;
#X connect 6 0 12 0;
#X connect 7 0 28 0;
#X connect 8 0 9 0;
#X connect 9 0 15 0;
#X connect 12 0 13 0;
#X connect 13 0 4 1;
#X connect 14 0 29 0;
#X connect 15 0 19 0;
#X connect 15 0 16 0;
#X connect 16 0 17 0;
#X connect 17 0 20 0;
#X connect 18 0 16 1;
#X connect 19 0 14 0;
#X connect 20 0 19 1;
#X connect 21 0 20 1;
#X connect 22 0 23 0;
#X connect 23 0 18 0;
#X connect 24 0 22 0;
#X connect 25 0 26 0;
#X connect 26 0 21 0;
#X connect 27 0 25 0;
#X connect 28 0 8 0;
#X connect 29 0 1 0;
#X connect 29 0 2 0;
#X connect 29 0 4 0;
