#N canvas 204 23 1203 721 10;
#X obj 204 101 random 12;
#X obj 204 53 loadbang;
#X obj 204 122 + 40;
#X obj 204 143 mtof;
#X obj 236 388 osc~;
#X obj 199 167 sig~;
#X obj 301 227 *~ 1.5;
#X obj 301 248 osc~;
#X floatatom 333 192 5 0 0 0 - - -;
#X obj 231 357 +~;
#X obj 292 281 *~ 20;
#X floatatom 353 248 5 0 0 0 - - -;
#X obj 335 113 random 1000;
#X obj 335 134 / 500;
#X obj 334 75 loadbang;
#X obj 396 200 random 400;
#X obj 396 221 + 100;
#X obj 397 167 loadbang;
#X obj 386 494 *~;
#X obj 427 408 osc~ 0.3;
#X obj 427 429 +~ 1;
#X obj 427 450 /~ 0.5;
#X obj 417 290 loadbang;
#X obj 421 338 random 10;
#X obj 423 315 bng 15 250 50 0 empty empty empty 17 7 0 10 -262144
-1 -1;
#X obj 422 472 *~ 0.15;
#X text 410 269 volume pulsing;
#X obj 427 596 *~;
#X obj 608 351 hsl 128 15 0 1 0 0 empty empty empty -2 -8 0 10 -262144
-1 -1 0 1;
#X obj 609 406 sig~;
#X obj 608 383 * 0.25;
#X obj 607 476 cos~;
#X obj 548 543 expr~ 1-$v1;
#X obj 470 595 *~;
#X obj 443 636 dac~;
#X obj 622 232 i \$1;
#X obj 620 202 loadbang;
#X obj 621 311 /;
#X obj 680 234 r numSynths;
#X obj 656 268 t b f;
#X obj 431 386 / 200;
#X obj 275 433 *~ 0.3;
#X connect 0 0 2 0;
#X connect 1 0 0 0;
#X connect 2 0 3 0;
#X connect 3 0 5 0;
#X connect 4 0 41 0;
#X connect 5 0 9 0;
#X connect 5 0 6 0;
#X connect 6 0 7 0;
#X connect 7 0 10 0;
#X connect 8 0 6 1;
#X connect 9 0 4 0;
#X connect 10 0 9 1;
#X connect 11 0 10 1;
#X connect 12 0 13 0;
#X connect 13 0 8 0;
#X connect 14 0 12 0;
#X connect 15 0 16 0;
#X connect 16 0 11 0;
#X connect 17 0 15 0;
#X connect 18 0 27 0;
#X connect 18 0 33 0;
#X connect 19 0 20 0;
#X connect 20 0 21 0;
#X connect 21 0 25 0;
#X connect 22 0 24 0;
#X connect 23 0 40 0;
#X connect 24 0 23 0;
#X connect 25 0 18 1;
#X connect 27 0 34 0;
#X connect 28 0 30 0;
#X connect 29 0 31 0;
#X connect 30 0 29 0;
#X connect 31 0 32 0;
#X connect 31 0 27 1;
#X connect 32 0 33 1;
#X connect 33 0 34 1;
#X connect 35 0 37 0;
#X connect 36 0 35 0;
#X connect 37 0 28 0;
#X connect 38 0 39 0;
#X connect 39 0 37 0;
#X connect 39 1 37 1;
#X connect 40 0 19 0;
#X connect 41 0 18 0;
